<?xml version="1.0" encoding="utf-8"?>
<svg xmlns="http://www.w3.org/2000/svg" version="1.1" width="1000" height="600">

<line x1="0" y1="0" x2="1000" y2="0" stroke="lightgrey" />
<text x="5" y="-5" fill="lightgrey" >0</text>
<line x1="0" y1="100" x2="1000" y2="100" stroke="lightgrey" />
<text x="5" y="95" fill="lightgrey" >100</text>
<line x1="0" y1="200" x2="1000" y2="200" stroke="lightgrey" />
<text x="5" y="195" fill="lightgrey" >200</text>
<line x1="0" y1="300" x2="1000" y2="300" stroke="lightgrey" />
<text x="5" y="295" fill="lightgrey" >300</text>
<line x1="0" y1="400" x2="1000" y2="400" stroke="lightgrey" />
<text x="5" y="395" fill="lightgrey" >400</text>
<line x1="0" y1="500" x2="1000" y2="500" stroke="lightgrey" />
<text x="5" y="495" fill="lightgrey" >500</text>
<line x1="0" y1="600" x2="1000" y2="600" stroke="lightgrey" />
<text x="5" y="595" fill="lightgrey" >600</text>
<line x1="0" y1="0" x2="0" y2="600" stroke="lightgrey" />
<text x="5" y="15" fill="lightgrey" >0</text>
<line x1="100" y1="0" x2="100" y2="600" stroke="lightgrey" />
<text x="105" y="15" fill="lightgrey" >100</text>
<line x1="200" y1="0" x2="200" y2="600" stroke="lightgrey" />
<text x="205" y="15" fill="lightgrey" >200</text>
<line x1="300" y1="0" x2="300" y2="600" stroke="lightgrey" />
<text x="305" y="15" fill="lightgrey" >300</text>
<line x1="400" y1="0" x2="400" y2="600" stroke="lightgrey" />
<text x="405" y="15" fill="lightgrey" >400</text>
<line x1="500" y1="0" x2="500" y2="600" stroke="lightgrey" />
<text x="505" y="15" fill="lightgrey" >500</text>
<line x1="600" y1="0" x2="600" y2="600" stroke="lightgrey" />
<text x="605" y="15" fill="lightgrey" >600</text>
<line x1="700" y1="0" x2="700" y2="600" stroke="lightgrey" />
<text x="705" y="15" fill="lightgrey" >700</text>
<line x1="800" y1="0" x2="800" y2="600" stroke="lightgrey" />
<text x="805" y="15" fill="lightgrey" >800</text>
<line x1="900" y1="0" x2="900" y2="600" stroke="lightgrey" />
<text x="905" y="15" fill="lightgrey" >900</text>
<line x1="1000" y1="0" x2="1000" y2="600" stroke="lightgrey" />
<text x="1005" y="15" fill="lightgrey" >1000</text>
<circle cx="350" cy="280" r="5" fill="lime" />
<text x="350" y="270" fill="black" >E(4)</text>
<circle cx="180" cy="220" r="5" fill="red" />
<text x="180" y="210" fill="black" >C(2)</text>
<circle cx="700" cy="460" r="5" fill="red" />
<text x="700" y="450" fill="black" >K(10)</text>
<circle cx="115" cy="100" r="5" fill="blue" />
<text x="115" y="90" fill="black" >B(1)</text>
<circle cx="360" cy="160" r="5" fill="cyan" />
<text x="360" y="150" fill="black" >D(3)</text>
<circle cx="510" cy="260" r="5" fill="red" />
<text x="510" y="250" fill="black" >F(5)</text>
<circle cx="590" cy="310" r="5" fill="teal" />
<text x="590" y="300" fill="black" >G(6)</text>
<circle cx="660" cy="360" r="5" fill="black" />
<text x="660" y="350" fill="black" >H(7)</text>
<circle cx="430" cy="330" r="5" fill="red" />
<text x="430" y="320" fill="black" >I(8)</text>
<circle cx="610" cy="500" r="5" fill="lime" />
<text x="610" y="490" fill="black" >J(9)</text>
<circle cx="220" cy="50" r="5" fill="red" />
<text x="220" y="40" fill="black" >A(0)</text>
<circle cx="950" cy="480" r="5" fill="black" />
<text x="950" y="470" fill="black" >L(11)</text>
<line x1="220" y1="50" x2="115" y2="100" stroke="black" />
<text x="167" y="62" fill="black" >1.00(0)</text>
<line x1="115" y1="100" x2="180" y2="220" stroke="black" />
<text x="147" y="147" fill="black" >1.00(1)</text>
<line x1="180" y1="220" x2="360" y2="160" stroke="black" />
<text x="270" y="177" fill="black" >1.00(2)</text>
<line x1="180" y1="220" x2="350" y2="280" stroke="black" />
<text x="265" y="237" fill="black" >1.00(3)</text>
<line x1="360" y1="160" x2="350" y2="280" stroke="black" />
<text x="355" y="207" fill="black" >1.00(4)</text>
<line x1="350" y1="280" x2="510" y2="260" stroke="black" />
<text x="430" y="257" fill="black" >1.00(5)</text>
<line x1="350" y1="280" x2="430" y2="330" stroke="black" />
<text x="390" y="292" fill="black" >1.00(6)</text>
<line x1="510" y1="260" x2="590" y2="310" stroke="black" />
<text x="550" y="272" fill="black" >1.00(7)</text>
<line x1="590" y1="310" x2="660" y2="360" stroke="black" />
<text x="625" y="322" fill="black" >1.00(8)</text>
<line x1="660" y1="360" x2="700" y2="460" stroke="black" />
<text x="680" y="397" fill="black" >1.00(9)</text>
<line x1="430" y1="330" x2="610" y2="500" stroke="black" />
<text x="520" y="402" fill="black" >1.00(10)</text>
<line x1="610" y1="500" x2="700" y2="460" stroke="black" />
<text x="655" y="467" fill="black" >1.00(11)</text>
<line x1="700" y1="460" x2="950" y2="480" stroke="black" />
<text x="825" y="457" fill="black" >1.00(12)</text>


</svg>
